<svg width="1473" height="1450" viewBox="0 0 1473 1450" fill="none" xmlns="http://www.w3.org/2000/svg">
<g clip-path="url(#clip0_660_156)">
<path d="M1033.73 1445.11C1032.19 1446.75 1030.59 1448.38 1028.96 1450H843.993C842.472 1448.42 840.973 1446.79 839.471 1445.11C839.411 1445.04 839.35 1444.96 839.289 1444.9C819.194 1422.32 806.541 1389.5 798.653 1354.89C798.146 1352.79 797.701 1350.68 797.254 1348.54C795.186 1338.81 793.503 1328.98 792.125 1319.23C791.881 1317.55 791.637 1315.86 791.434 1314.18C789.569 1300.17 788.312 1286.39 787.501 1273.46C787.4 1271.79 787.298 1270.17 787.197 1268.54C785.711 1242.79 785.698 1216.98 787.156 1191.22C787.156 1191.22 787.4 1191.22 787.866 1191.25C789.224 1191.31 792.489 1191.45 797.295 1191.74C810.536 1192.56 835.518 1194.62 864.9 1199.47C866.502 1199.74 868.124 1200.03 869.746 1200.31C894.598 1204.48 919.113 1210.5 943.09 1218.33C944.591 1218.84 946.071 1219.36 947.571 1219.87L947.592 1219.97L965.983 1313.56L973.608 1230.25C979.67 1233.03 985.571 1235.99 991.229 1239.16C992.81 1240.04 994.352 1240.93 995.872 1241.83C1008.81 1249.26 1020.55 1258.65 1030.69 1269.68C1091.01 1337.47 1078.1 1398.08 1033.73 1445.11Z" fill="#F2F2F2"/>
<path d="M956.431 1326.44L959.638 1330.04C996.704 1372.11 1018.82 1411.16 1025.64 1446.68C1025.75 1447.19 1025.82 1447.71 1025.93 1448.22L1023.56 1448.68L1021.27 1449.09C1014.32 1410.36 988.422 1370.34 956.101 1333.63C955.071 1332.44 954.025 1331.23 952.944 1330.05C939.127 1314.63 924.271 1299.85 909.25 1286.02C908.097 1284.94 906.91 1283.86 905.723 1282.77C885.803 1264.63 865.763 1248.21 847.89 1234.37C846.632 1233.39 845.355 1232.42 844.094 1231.47C813.749 1208.17 790.203 1192.73 784.956 1189.34C784.323 1188.92 783.965 1188.7 783.884 1188.64L785.126 1186.63L785.128 1186.6L786.387 1184.57C786.468 1184.62 787.672 1185.37 789.848 1186.81C798.016 1192.15 819.972 1206.84 847.285 1227.74C848.512 1228.69 849.789 1229.65 851.048 1230.64C865.563 1241.85 881.439 1254.7 897.471 1268.77C901.504 1272.3 905.436 1275.82 909.268 1279.33C910.473 1280.4 911.659 1281.48 912.813 1282.56C929.053 1297.51 943.592 1312.13 956.431 1326.44Z" fill="white"/>
<path d="M866.644 1195.48C866.096 1196.82 865.508 1198.15 864.899 1199.47C860.268 1209.63 854.344 1219.14 847.278 1227.75C846.245 1228.98 845.19 1230.23 844.095 1231.47C841.135 1234.78 837.985 1237.98 834.645 1241.07C820.983 1253.61 804.792 1262.99 787.196 1268.54C786.628 1268.73 786.081 1268.91 785.513 1269.08C785.614 1270.7 785.716 1272.31 785.817 1273.97C786.385 1273.81 786.933 1273.64 787.5 1273.46C806.17 1267.75 823.355 1257.9 837.809 1244.63C841.343 1241.39 844.708 1237.96 847.887 1234.37C848.981 1233.15 850.037 1231.9 851.051 1230.65C858.606 1221.44 864.895 1211.23 869.746 1200.31C870.314 1199 870.881 1197.68 871.429 1196.34C869.807 1196.06 868.205 1195.77 866.644 1195.48Z" fill="white"/>
<path d="M943.921 1214.69C943.678 1215.9 943.393 1217.11 943.089 1218.33C937.592 1241.44 925.885 1262.56 909.267 1279.34C908.111 1280.51 906.935 1281.66 905.719 1282.77C905.373 1283.12 904.988 1283.49 904.624 1283.82C889.507 1297.66 871.347 1307.64 851.658 1312.92C831.969 1318.2 811.321 1318.63 791.434 1314.18C790.968 1314.09 790.482 1313.97 790.016 1313.87C790.258 1315.55 790.482 1317.26 790.745 1318.95C791.212 1319.05 791.658 1319.15 792.125 1319.23C812.516 1323.51 833.614 1322.86 853.709 1317.32C873.804 1311.79 892.33 1301.53 907.786 1287.38C908.273 1286.93 908.78 1286.5 909.247 1286.02C910.463 1284.87 911.64 1283.72 912.816 1282.57C929.822 1265.31 941.847 1243.66 947.592 1219.97C947.896 1218.74 948.179 1217.5 948.443 1216.27C946.942 1215.74 945.442 1215.2 943.921 1214.69Z" fill="white"/>
<path d="M991.228 1235.68C991.248 1236.84 991.248 1238.01 991.228 1239.16C990.89 1271.66 978.462 1302.83 956.432 1326.43C955.296 1327.67 954.12 1328.86 952.945 1330.05C951.666 1331.31 950.389 1332.56 949.071 1333.75C928.673 1352.4 902.905 1363.9 875.569 1366.56C848.234 1369.22 820.779 1362.9 797.254 1348.54C796.851 1348.33 796.458 1348.09 796.078 1347.84C796.565 1350.02 797.051 1352.16 797.579 1354.3C797.943 1354.5 798.288 1354.71 798.653 1354.89C822.859 1368.58 850.681 1374.25 878.222 1371.1C905.762 1367.95 931.642 1356.14 952.235 1337.33C953.553 1336.12 954.87 1334.9 956.107 1333.63C957.324 1332.46 958.479 1331.26 959.636 1330.03C981.977 1306.14 994.874 1274.74 995.872 1241.83C995.912 1240.72 995.933 1239.61 995.932 1238.5C994.392 1237.53 992.809 1236.61 991.228 1235.68Z" fill="white"/>
<path d="M581.289 340.493H224.84C221.874 340.49 219.03 339.293 216.932 337.166C214.835 335.039 213.655 332.155 213.652 329.147V54.6705C213.655 51.6622 214.835 48.7781 216.932 46.6508C219.03 44.5235 221.874 43.3268 224.84 43.3232H662.363C665.329 43.3268 668.173 44.5235 670.27 46.6508C672.368 48.7781 673.548 51.6622 673.551 54.6705V246.928C673.523 271.734 663.794 295.517 646.497 313.058C629.201 330.598 605.75 340.465 581.289 340.493Z" fill="white"/>
<path d="M581.289 341.521H224.84C221.605 341.517 218.504 340.212 216.216 337.893C213.929 335.573 212.642 332.428 212.638 329.147V54.6704C212.642 51.3895 213.928 48.244 216.216 45.924C218.504 43.604 221.605 42.2989 224.84 42.2949H662.363C665.598 42.2987 668.7 43.6038 670.987 45.9238C673.275 48.2439 674.562 51.3895 674.565 54.6704V246.927C674.537 272.007 664.701 296.05 647.214 313.784C629.727 331.518 606.018 341.493 581.289 341.521V341.521ZM224.84 46.4077C222.68 46.4104 220.61 47.2818 219.082 48.8308C217.555 50.3798 216.696 52.4799 216.694 54.6704V329.147C216.696 331.337 217.555 333.437 219.082 334.986C220.61 336.535 222.68 337.406 224.84 337.409H581.289C604.943 337.381 627.621 327.84 644.348 310.877C661.074 293.915 670.483 270.916 670.509 246.927V54.6704C670.507 52.4799 669.648 50.3798 668.121 48.8308C666.594 47.2818 664.523 46.4104 662.363 46.4077H224.84Z" fill="#CCCCCC"/>
<path d="M575.876 136.019H311.327C308.899 136.019 306.569 135.04 304.852 133.299C303.135 131.557 302.17 129.195 302.17 126.732C302.17 124.269 303.135 121.907 304.852 120.165C306.569 118.424 308.899 117.445 311.327 117.445H575.876C578.302 117.449 580.628 118.429 582.342 120.17C584.057 121.911 585.02 124.272 585.02 126.732C585.02 129.193 584.057 131.553 582.342 133.294C580.628 135.035 578.302 136.015 575.876 136.019V136.019Z" fill="#CCCCCC"/>
<path d="M575.876 199.994H311.327C308.899 199.994 306.569 199.016 304.852 197.274C303.135 195.533 302.17 193.171 302.17 190.708C302.17 188.245 303.135 185.883 304.852 184.141C306.569 182.399 308.899 181.421 311.327 181.421H575.876C578.305 181.421 580.634 182.399 582.351 184.141C584.069 185.883 585.033 188.245 585.033 190.708C585.033 193.171 584.069 195.533 582.351 197.274C580.634 199.016 578.305 199.994 575.876 199.994Z" fill="#CCCCCC"/>
<path d="M575.876 265.798H311.327C308.899 265.798 306.569 264.82 304.852 263.078C303.135 261.337 302.17 258.974 302.17 256.511C302.17 254.048 303.135 251.686 304.852 249.945C306.569 248.203 308.899 247.225 311.327 247.225H575.876C578.305 247.225 580.634 248.203 582.351 249.945C584.069 251.686 585.033 254.048 585.033 256.511C585.033 258.974 584.069 261.337 582.351 263.078C580.634 264.82 578.305 265.798 575.876 265.798Z" fill="#CCCCCC"/>
<path d="M659.078 110.915C689.28 110.915 713.763 86.0861 713.763 55.4577C713.763 24.8292 689.28 0 659.078 0C628.876 0 604.393 24.8292 604.393 55.4577C604.393 86.0861 628.876 110.915 659.078 110.915Z" fill="#FFA45C"/>
<path d="M651.618 84.3211C650.673 84.3211 649.742 84.098 648.897 83.6696C648.053 83.2412 647.318 82.6193 646.752 81.853L631.833 61.6797C631.353 61.0316 631.005 60.2942 630.806 59.5094C630.608 58.7247 630.564 57.908 630.677 57.106C630.79 56.3041 631.058 55.5326 631.465 54.8355C631.872 54.1385 632.41 53.5295 633.05 53.0435C633.689 52.5575 634.416 52.2039 635.19 52.0028C635.964 51.8018 636.769 51.7573 637.56 51.8719C638.35 51.9865 639.111 52.2579 639.798 52.6707C640.486 53.0834 641.086 53.6294 641.565 54.2775L651.326 67.4744L676.395 29.3408C677.29 27.9795 678.681 27.0344 680.263 26.7136C681.845 26.3927 683.488 26.7223 684.83 27.6299C686.173 28.5374 687.105 29.9486 687.421 31.5529C687.737 33.1573 687.412 34.8234 686.517 36.1847L656.68 81.5738C656.14 82.3947 655.414 83.0724 654.563 83.5501C653.711 84.0277 652.759 84.2915 651.787 84.3191C651.73 84.3202 651.674 84.3211 651.618 84.3211Z" fill="white"/>
<path d="M449.725 578.888H93.2761C68.815 578.86 45.3638 568.993 28.0672 551.452C10.7706 533.911 1.04127 510.129 1.01367 485.322V293.064C1.01715 290.056 2.19714 287.172 4.29477 285.044C6.3924 282.917 9.23641 281.72 12.2029 281.717H449.725C452.691 281.72 455.535 282.917 457.633 285.044C459.73 287.172 460.91 290.056 460.914 293.064V567.54C460.91 570.549 459.73 573.433 457.633 575.56C455.535 577.688 452.691 578.884 449.725 578.888V578.888Z" fill="white"/>
<path d="M449.725 579.916H93.2763C68.5465 579.887 44.8376 569.912 27.351 552.178C9.86444 534.445 0.0281171 510.401 0 485.322V293.064C0.00366559 289.783 1.29053 286.637 3.57826 284.317C5.86599 281.997 8.96777 280.692 12.2031 280.688H449.725C452.96 280.692 456.062 281.997 458.35 284.317C460.637 286.637 461.924 289.783 461.928 293.064V567.54C461.924 570.821 460.637 573.967 458.35 576.287C456.062 578.607 452.96 579.912 449.725 579.916ZM12.2031 284.801C10.043 284.804 7.97216 285.675 6.44475 287.224C4.91734 288.773 4.05809 290.873 4.05549 293.064V485.322C4.08221 509.311 13.4908 532.309 30.2172 549.272C46.9435 566.234 69.6216 575.776 93.2763 575.803H449.725C451.885 575.801 453.956 574.929 455.483 573.38C457.011 571.831 457.87 569.731 457.872 567.54V293.064C457.87 290.873 457.01 288.773 455.483 287.224C453.956 285.675 451.885 284.804 449.725 284.801H12.2031Z" fill="#CCCCCC"/>
<path d="M363.238 374.413H98.6897C96.261 374.413 93.9317 373.435 92.2144 371.693C90.497 369.951 89.5322 367.589 89.5322 365.126C89.5322 362.663 90.497 360.301 92.2144 358.559C93.9317 356.818 96.261 355.839 98.6897 355.839H363.238C365.667 355.839 367.996 356.818 369.713 358.559C371.431 360.301 372.396 362.663 372.396 365.126C372.396 367.589 371.431 369.951 369.713 371.693C367.996 373.435 365.667 374.413 363.238 374.413Z" fill="#CCCCCC"/>
<path d="M363.238 438.388H98.6897C96.261 438.388 93.9317 437.41 92.2144 435.668C90.497 433.927 89.5322 431.565 89.5322 429.102C89.5322 426.639 90.497 424.277 92.2144 422.535C93.9317 420.793 96.261 419.815 98.6897 419.815H363.238C365.667 419.815 367.996 420.793 369.713 422.535C371.431 424.277 372.396 426.639 372.396 429.102C372.396 431.565 371.431 433.927 369.713 435.668C367.996 437.41 365.667 438.388 363.238 438.388Z" fill="#CCCCCC"/>
<path d="M363.238 504.193H98.6897C96.261 504.193 93.9317 503.215 92.2144 501.473C90.497 499.732 89.5322 497.369 89.5322 494.906C89.5322 492.443 90.497 490.081 92.2144 488.34C93.9317 486.598 96.261 485.62 98.6897 485.62H363.238C365.667 485.62 367.996 486.598 369.713 488.34C371.431 490.081 372.396 492.443 372.396 494.906C372.396 497.369 371.431 499.732 369.713 501.473C367.996 503.215 365.667 504.193 363.238 504.193Z" fill="#CCCCCC"/>
<path d="M450.22 351.513C480.422 351.513 504.905 326.684 504.905 296.055C504.905 265.427 480.422 240.598 450.22 240.598C420.018 240.598 395.535 265.427 395.535 296.055C395.535 326.684 420.018 351.513 450.22 351.513Z" fill="#FFA45C"/>
<path d="M442.76 324.918C441.816 324.918 440.884 324.695 440.04 324.266C439.195 323.838 438.461 323.216 437.894 322.45L422.975 302.276C422.496 301.628 422.147 300.891 421.949 300.106C421.751 299.321 421.707 298.505 421.82 297.703C421.933 296.901 422.201 296.129 422.608 295.432C423.015 294.735 423.553 294.126 424.192 293.64C424.831 293.154 425.558 292.801 426.332 292.6C427.106 292.399 427.911 292.354 428.702 292.469C429.493 292.583 430.254 292.855 430.941 293.267C431.628 293.68 432.229 294.226 432.708 294.874L442.469 308.071L467.537 269.937C468.432 268.576 469.824 267.631 471.406 267.31C472.988 266.989 474.63 267.319 475.973 268.227C477.315 269.134 478.247 270.545 478.564 272.15C478.88 273.754 478.555 275.42 477.66 276.781L447.822 322.171C447.282 322.991 446.556 323.669 445.705 324.147C444.854 324.624 443.902 324.888 442.929 324.916C442.873 324.917 442.817 324.918 442.76 324.918Z" fill="white"/>
<path d="M893.85 834.729H395.098C370.637 834.701 347.186 824.835 329.889 807.294C312.593 789.753 302.864 765.97 302.836 741.164V458.383C302.84 454.505 304.361 450.787 307.065 448.045C309.769 445.303 313.435 443.76 317.259 443.756H893.85C897.674 443.76 901.34 445.303 904.044 448.045C906.747 450.787 908.268 454.505 908.272 458.383V820.102C908.268 823.98 906.748 827.697 904.044 830.44C901.34 833.182 897.674 834.725 893.85 834.729V834.729Z" fill="white"/>
<path d="M893.851 835.757H395.099C370.369 835.729 346.66 825.754 329.173 808.02C311.687 790.286 301.85 766.243 301.822 741.164V458.382C301.827 454.232 303.455 450.253 306.349 447.318C309.243 444.383 313.166 442.732 317.259 442.728H893.851C897.943 442.732 901.867 444.383 904.76 447.318C907.654 450.253 909.282 454.232 909.286 458.382V820.102C909.282 824.252 907.654 828.231 904.761 831.166C901.867 834.101 897.943 835.752 893.851 835.757V835.757ZM317.259 446.84C314.242 446.844 311.349 448.061 309.215 450.225C307.082 452.389 305.881 455.322 305.878 458.382V741.164C305.904 765.152 315.313 788.151 332.039 805.113C348.766 822.076 371.444 831.618 395.099 831.645H893.851C896.868 831.641 899.761 830.423 901.894 828.259C904.028 826.095 905.228 823.162 905.231 820.102V458.382C905.228 455.322 904.028 452.389 901.894 450.225C899.761 448.061 896.868 446.844 893.851 446.84H317.259Z" fill="#CCCCCC"/>
<path d="M779.873 565.588H431.236C429.65 565.59 428.079 565.275 426.613 564.661C425.147 564.047 423.815 563.146 422.693 562.009C421.57 560.873 420.68 559.523 420.072 558.037C419.465 556.551 419.152 554.958 419.152 553.35C419.152 551.741 419.465 550.148 420.072 548.662C420.68 547.176 421.57 545.827 422.693 544.69C423.815 543.553 425.147 542.652 426.613 542.038C428.079 541.424 429.65 541.109 431.236 541.111H779.873C781.459 541.109 783.03 541.424 784.496 542.038C785.962 542.652 787.294 543.553 788.416 544.69C789.539 545.827 790.429 547.176 791.036 548.662C791.644 550.148 791.957 551.741 791.957 553.35C791.957 554.958 791.644 556.551 791.036 558.037C790.429 559.523 789.539 560.873 788.416 562.009C787.294 563.146 785.962 564.047 784.496 564.661C783.03 565.275 781.459 565.59 779.873 565.588Z" fill="#CCCCCC"/>
<path d="M779.873 649.899H431.236C429.65 649.901 428.079 649.586 426.613 648.972C425.147 648.358 423.815 647.456 422.693 646.32C421.57 645.183 420.68 643.833 420.072 642.347C419.465 640.861 419.152 639.269 419.152 637.66C419.152 636.052 419.465 634.459 420.072 632.973C420.68 631.487 421.57 630.137 422.693 629C423.815 627.864 425.147 626.963 426.613 626.348C428.079 625.734 429.65 625.419 431.236 625.421H779.873C783.074 625.421 786.143 626.711 788.406 629.006C790.67 631.301 791.941 634.414 791.941 637.66C791.941 640.906 790.67 644.019 788.406 646.314C786.143 648.609 783.074 649.899 779.873 649.899Z" fill="#CCCCCC"/>
<path d="M779.873 736.619H431.236C428.035 736.619 424.966 735.33 422.703 733.035C420.439 730.739 419.168 727.627 419.168 724.381C419.168 721.135 420.439 718.022 422.703 715.727C424.966 713.432 428.035 712.142 431.236 712.142H779.873C781.459 712.14 783.03 712.455 784.496 713.069C785.962 713.683 787.294 714.584 788.416 715.721C789.539 716.858 790.429 718.208 791.036 719.693C791.644 721.179 791.957 722.772 791.957 724.381C791.957 725.989 791.644 727.582 791.036 729.068C790.429 730.554 789.539 731.904 788.416 733.04C787.294 734.177 785.962 735.078 784.496 735.692C783.03 736.306 781.459 736.621 779.873 736.619Z" fill="#CCCCCC"/>
<path d="M895.662 536.096C933.894 536.096 964.887 504.665 964.887 465.893C964.887 427.121 933.894 395.69 895.662 395.69C857.43 395.69 826.437 427.121 826.437 465.893C826.437 504.665 857.43 536.096 895.662 536.096Z" fill="#FFA45C"/>
<path d="M886.218 502.43C885.023 502.43 883.843 502.148 882.774 501.606C881.705 501.063 880.775 500.276 880.058 499.306L861.173 473.769C860.566 472.949 860.125 472.015 859.874 471.022C859.623 470.028 859.567 468.995 859.71 467.979C859.853 466.964 860.192 465.988 860.707 465.105C861.223 464.223 861.904 463.452 862.713 462.837C863.522 462.222 864.443 461.774 865.422 461.519C866.402 461.265 867.421 461.209 868.422 461.354C869.423 461.499 870.386 461.842 871.256 462.365C872.126 462.887 872.887 463.578 873.493 464.399L885.849 481.104L917.583 432.832C918.717 431.112 920.478 429.918 922.479 429.513C924.48 429.109 926.558 429.527 928.256 430.674C929.954 431.822 931.133 433.607 931.534 435.636C931.936 437.665 931.527 439.772 930.397 441.496L892.626 498.953C891.942 499.992 891.023 500.85 889.946 501.454C888.868 502.059 887.663 502.393 886.432 502.428C886.361 502.429 886.289 502.43 886.218 502.43Z" fill="white"/>
<path d="M1075 1393.95L1046.84 1403.51L997.101 1297.88L1038.67 1283.79L1075 1393.95Z" fill="#FFB6B6"/>
<path d="M1091.31 1419.2L1000.5 1443.83L1000.12 1442.67C996.958 1433.09 997.666 1429.01 1002.11 1419.98C1004.28 1415.53 1007.31 1411.56 1011 1408.3C1014.7 1405.05 1018.99 1402.57 1023.64 1401L1023.64 1401L1036.02 1382.61L1071.18 1384.88L1079.11 1382.19L1091.31 1419.2Z" fill="#212121"/>
<path d="M1144.58 1420.81H1114.89L1100.76 1304.64L1144.59 1304.65L1144.58 1420.81Z" fill="#FFB6B6"/>
<path d="M1152.16 1443.83L1056.4 1443.83V1442.6C1056.4 1432.51 1060.28 1429.18 1067.32 1422.04C1070.77 1418.52 1074.88 1415.73 1079.4 1413.83C1083.92 1411.93 1088.77 1410.96 1093.67 1410.97H1093.67L1111.16 1397.52L1143.8 1410.98L1152.16 1410.98L1152.16 1443.83Z" fill="#212121"/>
<path d="M918.567 490.07C919.179 493.225 920.465 496.206 922.335 498.803C924.206 501.399 926.615 503.548 929.393 505.099C932.171 506.649 935.25 507.563 938.414 507.775C941.578 507.988 944.749 507.495 947.705 506.33L981.989 542.629L1008.82 526.881L959.696 476.309C957.438 471.403 953.484 467.508 948.583 465.362C943.682 463.215 938.174 462.967 933.105 464.663C928.035 466.359 923.755 469.882 921.075 474.565C918.396 479.248 917.504 484.764 918.567 490.07V490.07Z" fill="#FFB6B6"/>
<path d="M1140.45 672.586L1155.9 656.37L1066.52 572.422L976.566 490.964L951.651 526.667L1045.92 615.902L1140.45 672.586Z" fill="#E4E4E4"/>
<path d="M1085.53 1223.5C1085.53 1203.12 1085.93 1188.58 1086.25 1176.9C1087.18 1142.71 1087.43 1133.53 1074.53 1074.66L1071.22 1059.54L1051.68 1118.98C1045.44 1137.94 1042.25 1157.79 1042.24 1177.78L1072.36 1361.07H1010.8L965.704 1162.92L965.683 1102.3C961.71 1098.13 959.49 1092.56 959.49 1086.77C959.49 1080.97 961.71 1075.4 965.683 1071.23L980.664 980.42L995.827 858.038H1161.91C1161.91 858.038 1191.23 919.651 1162.1 980.768L1162.09 1223.57L1147.04 1391.45H1100.58L1085.53 1223.5Z" fill="#212121"/>
<path d="M1151.76 872.851L996.408 859.722L995.601 859.655L1008 633.342C1008.73 619.112 1013.65 605.432 1022.13 594.072C1030.61 582.712 1042.26 574.195 1055.57 569.623V553.785C1055.57 549.865 1057.11 546.107 1059.84 543.335C1062.58 540.564 1066.28 539.004 1070.15 539H1092.85C1095.55 538.991 1098.21 539.752 1100.52 541.196C1102.82 542.641 1104.68 544.711 1105.89 547.173L1116.98 569.685L1158.96 603.737C1179.69 620.555 1163 789.175 1162.1 798.071L1172.26 849.545C1172.81 852.376 1172.75 855.298 1172.06 858.1C1171.37 860.902 1170.08 863.514 1168.28 865.749C1166.47 867.985 1164.2 869.787 1161.63 871.027C1159.06 872.267 1156.25 872.914 1153.4 872.922C1152.86 872.92 1152.31 872.896 1151.76 872.851Z" fill="#E4E4E4"/>
<path d="M987.243 932.606C989.699 930.572 991.686 928.017 993.062 925.12C994.439 922.224 995.173 919.056 995.212 915.841C995.251 912.625 994.595 909.44 993.289 906.51C991.983 903.58 990.059 900.976 987.654 898.881L1003.07 851.109L976.725 834.529L955.893 902.302C952.691 906.634 951.167 912.007 951.609 917.402C952.052 922.797 954.431 927.841 958.296 931.576C962.16 935.311 967.241 937.479 972.576 937.669C977.912 937.859 983.13 936.057 987.243 932.606V932.606Z" fill="#FFB6B6"/>
<path d="M1041.42 607.843L1020.03 600.613L989.142 740.381L960.691 879.381L1003.48 885.766L1036.67 737.971L1041.42 607.843Z" fill="#E4E4E4"/>
<path d="M1064.77 524.534C1092.95 524.534 1115.8 501.368 1115.8 472.791C1115.8 444.215 1092.95 421.048 1064.77 421.048C1036.6 421.048 1013.75 444.215 1013.75 472.791C1013.75 501.368 1036.6 524.534 1064.77 524.534Z" fill="#FFB6B6"/>
<path d="M996.124 447.452C996.595 442.548 997.98 437.78 1000.21 433.401C1002.59 438.661 1010.03 439.574 1015.12 436.956C1020.22 434.338 1023.63 429.366 1027.27 424.905C1036.87 413.134 1050.08 403.585 1065.04 401.846C1080.01 400.107 1096.51 407.769 1102.16 421.929C1104.7 418.355 1110.11 417.958 1113.94 420.034C1117.64 422.4 1120.53 425.869 1122.21 429.964C1125.97 437.802 1128.1 446.344 1128.46 455.055C1128.82 463.766 1127.39 472.458 1124.28 480.585C1117.98 496.758 1102.42 518.548 1086.36 524.652C1076.61 528.358 1066.77 523.615 1056.4 524.652C1056.94 513.178 1059.14 499.02 1059.68 487.546C1059.98 481.262 1060.02 474.232 1055.79 469.632C1054.49 468.382 1052.94 467.437 1051.24 466.863C1049.54 466.289 1047.74 466.101 1045.96 466.311C1044.18 466.522 1042.47 467.126 1040.95 468.081C1039.43 469.036 1038.13 470.319 1037.15 471.838C1036.63 468.271 1035.44 464.837 1033.65 461.719C1032.73 460.173 1031.41 458.918 1029.82 458.095C1028.24 457.272 1026.46 456.915 1024.69 457.063C1020.36 457.782 1017.68 462.289 1013.71 464.176C1011.46 465.093 1008.98 465.289 1006.61 464.738C1004.24 464.187 1002.09 462.915 1000.46 461.093C998.865 459.232 997.662 457.064 996.918 454.72C996.174 452.376 995.904 449.904 996.124 447.452V447.452Z" fill="#2F2E41"/>
<path opacity="0.1" d="M1071.38 737.344L1011.46 858.881H1056.4L1071.38 737.344Z" fill="black"/>
<path d="M1473 1447.55C1473 1447.87 1472.94 1448.19 1472.82 1448.49C1472.7 1448.79 1472.52 1449.06 1472.3 1449.29C1472.07 1449.51 1471.8 1449.69 1471.51 1449.82C1471.22 1449.94 1470.9 1450 1470.59 1450H326.351C325.711 1450 325.097 1449.74 324.645 1449.28C324.192 1448.82 323.938 1448.2 323.938 1447.55C323.938 1446.9 324.192 1446.28 324.645 1445.82C325.097 1445.36 325.711 1445.11 326.351 1445.11H1470.59C1470.9 1445.1 1471.22 1445.17 1471.51 1445.29C1471.8 1445.41 1472.07 1445.59 1472.3 1445.82C1472.52 1446.05 1472.7 1446.32 1472.82 1446.62C1472.94 1446.91 1473 1447.23 1473 1447.55V1447.55Z" fill="#CACACA"/>
</g>
<defs>
<clipPath id="clip0_660_156">
<rect width="1473" height="1450" fill="white"/>
</clipPath>
</defs>
</svg>
