<svg id="visual" viewBox="0 0 900 600" width="900" height="600" xmlns="http://www.w3.org/2000/svg" xmlns:xlink="http://www.w3.org/1999/xlink" version="1.1"><path d="M0 478L16.7 475.2C33.3 472.3 66.7 466.7 100 467.7C133.3 468.7 166.7 476.3 200 479C233.3 481.7 266.7 479.3 300 480.2C333.3 481 366.7 485 400 487.3C433.3 489.7 466.7 490.3 500 491.5C533.3 492.7 566.7 494.3 600 494.5C633.3 494.7 666.7 493.3 700 491.2C733.3 489 766.7 486 800 482.5C833.3 479 866.7 475 883.3 473L900 471L900 601L883.3 601C866.7 601 833.3 601 800 601C766.7 601 733.3 601 700 601C666.7 601 633.3 601 600 601C566.7 601 533.3 601 500 601C466.7 601 433.3 601 400 601C366.7 601 333.3 601 300 601C266.7 601 233.3 601 200 601C166.7 601 133.3 601 100 601C66.7 601 33.3 601 16.7 601L0 601Z" fill="#ffa45c"></path><path d="M0 524L16.7 524.3C33.3 524.7 66.7 525.3 100 523.3C133.3 521.3 166.7 516.7 200 514.2C233.3 511.7 266.7 511.3 300 506.8C333.3 502.3 366.7 493.7 400 490.7C433.3 487.7 466.7 490.3 500 495C533.3 499.7 566.7 506.3 600 504.5C633.3 502.7 666.7 492.3 700 488.8C733.3 485.3 766.7 488.7 800 488.2C833.3 487.7 866.7 483.3 883.3 481.2L900 479L900 601L883.3 601C866.7 601 833.3 601 800 601C766.7 601 733.3 601 700 601C666.7 601 633.3 601 600 601C566.7 601 533.3 601 500 601C466.7 601 433.3 601 400 601C366.7 601 333.3 601 300 601C266.7 601 233.3 601 200 601C166.7 601 133.3 601 100 601C66.7 601 33.3 601 16.7 601L0 601Z" fill="#fa8b58"></path><path d="M0 500L16.7 506.2C33.3 512.3 66.7 524.7 100 528.8C133.3 533 166.7 529 200 526C233.3 523 266.7 521 300 520.7C333.3 520.3 366.7 521.7 400 520.3C433.3 519 466.7 515 500 513.7C533.3 512.3 566.7 513.7 600 517.3C633.3 521 666.7 527 700 529C733.3 531 766.7 529 800 522.8C833.3 516.7 866.7 506.3 883.3 501.2L900 496L900 601L883.3 601C866.7 601 833.3 601 800 601C766.7 601 733.3 601 700 601C666.7 601 633.3 601 600 601C566.7 601 533.3 601 500 601C466.7 601 433.3 601 400 601C366.7 601 333.3 601 300 601C266.7 601 233.3 601 200 601C166.7 601 133.3 601 100 601C66.7 601 33.3 601 16.7 601L0 601Z" fill="#f17158"></path><path d="M0 554L16.7 549.2C33.3 544.3 66.7 534.7 100 534.5C133.3 534.3 166.7 543.7 200 547.5C233.3 551.3 266.7 549.7 300 547.8C333.3 546 366.7 544 400 544.3C433.3 544.7 466.7 547.3 500 548C533.3 548.7 566.7 547.3 600 547.5C633.3 547.7 666.7 549.3 700 550C733.3 550.7 766.7 550.3 800 549.8C833.3 549.3 866.7 548.7 883.3 548.3L900 548L900 601L883.3 601C866.7 601 833.3 601 800 601C766.7 601 733.3 601 700 601C666.7 601 633.3 601 600 601C566.7 601 533.3 601 500 601C466.7 601 433.3 601 400 601C366.7 601 333.3 601 300 601C266.7 601 233.3 601 200 601C166.7 601 133.3 601 100 601C66.7 601 33.3 601 16.7 601L0 601Z" fill="#e6575b"></path><path d="M0 556L16.7 554.3C33.3 552.7 66.7 549.3 100 547.2C133.3 545 166.7 544 200 545C233.3 546 266.7 549 300 551.7C333.3 554.3 366.7 556.7 400 556.8C433.3 557 466.7 555 500 556.8C533.3 558.7 566.7 564.3 600 564.8C633.3 565.3 666.7 560.7 700 558.5C733.3 556.3 766.7 556.7 800 555.2C833.3 553.7 866.7 550.3 883.3 548.7L900 547L900 601L883.3 601C866.7 601 833.3 601 800 601C766.7 601 733.3 601 700 601C666.7 601 633.3 601 600 601C566.7 601 533.3 601 500 601C466.7 601 433.3 601 400 601C366.7 601 333.3 601 300 601C266.7 601 233.3 601 200 601C166.7 601 133.3 601 100 601C66.7 601 33.3 601 16.7 601L0 601Z" fill="#d73d60"></path><path d="M0 584L16.7 584C33.3 584 66.7 584 100 583.3C133.3 582.7 166.7 581.3 200 577.7C233.3 574 266.7 568 300 564.8C333.3 561.7 366.7 561.3 400 562.5C433.3 563.7 466.7 566.3 500 570.3C533.3 574.3 566.7 579.7 600 581.5C633.3 583.3 666.7 581.7 700 579.5C733.3 577.3 766.7 574.7 800 575C833.3 575.3 866.7 578.7 883.3 580.3L900 582L900 601L883.3 601C866.7 601 833.3 601 800 601C766.7 601 733.3 601 700 601C666.7 601 633.3 601 600 601C566.7 601 533.3 601 500 601C466.7 601 433.3 601 400 601C366.7 601 333.3 601 300 601C266.7 601 233.3 601 200 601C166.7 601 133.3 601 100 601C66.7 601 33.3 601 16.7 601L0 601Z" fill="#c52266"></path></svg>