<svg width="153" height="20" viewBox="0 0 153 20" fill="none" xmlns="http://www.w3.org/2000/svg">
<path d="M18.6842 0H1.11111C0.497461 0 0 0.484016 0 1.08108V18.1792C0 18.7763 0.497461 19.2603 1.11111 19.2603H18.6842C19.2979 19.2603 19.7953 18.7763 19.7953 18.1792V1.08108C19.7953 0.484016 19.2979 0 18.6842 0Z" fill="#FFA45C"/>
<path d="M3.73963 14.3124L0 8.41616V18.5231C0 19.1202 0.497462 19.6042 1.11111 19.6042H18.6842C19.2979 19.6042 19.7953 19.1202 19.7953 18.5231V2.06358L14.0536 13.4595C13.8559 13.8517 13.2866 13.8657 13.0689 13.4837L9.34783 6.95395C9.12983 6.57146 8.55956 6.58611 8.36256 6.97919L4.71179 14.2654C4.51995 14.6483 3.96953 14.6749 3.73963 14.3124Z" fill="#071E3D"/>
<path d="M29.3012 0.382653L31.6506 11.148L32.1566 14.1454L32.6747 11.2118L34.6747 0.382653H38.5904L40.6988 11.148L41.241 14.1454L41.7831 11.2628L44.1566 0.382653H47.9277L42.9277 19.1837H39.3855L37.241 8.18878L36.6145 4.55355L35.988 8.18878L33.8434 19.1837H30.3976L25.3614 0.382653H29.3012ZM55.3614 16.6199C56.3655 16.6199 57.1366 16.2415 57.6747 15.4847C58.2128 14.7279 58.4819 13.6522 58.4819 12.2576C58.4819 10.8631 58.2128 9.79167 57.6747 9.04335C57.1366 8.28657 56.3655 7.90816 55.3614 7.90816C54.3574 7.90816 53.5823 8.28657 53.0362 9.04335C52.498 9.79167 52.2289 10.8631 52.2289 12.2576C52.2289 13.6522 52.498 14.7279 53.0362 15.4847C53.5823 16.2415 54.3574 16.6199 55.3614 16.6199ZM62.0843 12.2576C62.0843 14.2984 61.5301 16.0459 60.4217 17.5C59.3133 18.9456 57.6305 19.6684 55.3735 19.6684C53.1165 19.6684 51.4337 18.9456 50.3253 17.5C49.2169 16.0459 48.6627 14.2984 48.6627 12.2576C48.6627 10.2509 49.2169 8.51192 50.3253 7.04082C51.4337 5.56971 53.1165 4.8342 55.3735 4.8342C57.6305 4.8342 59.3133 5.56971 60.4217 7.04082C61.5301 8.51192 62.0843 10.2509 62.0843 12.2576ZM71.6868 4.94898C71.7508 4.94898 71.8033 4.95322 71.8434 4.96171C71.8916 4.96171 71.9918 4.966 72.1445 4.97449V8.69898C71.9278 8.67347 71.735 8.65645 71.5662 8.64796C71.3977 8.63947 71.2612 8.63518 71.1567 8.63518C69.7749 8.63518 68.8473 9.11139 68.3735 10.0638C68.1082 10.5995 67.976 11.4243 67.976 12.5383V19.1837H64.5181V5.28061H67.7952V7.70408C68.3253 6.77722 68.7872 6.14371 69.1808 5.80359C69.8231 5.23384 70.6586 4.94898 71.6868 4.94898ZM74.1327 0.446429H77.5062V10.574L81.783 5.34441H86.0359L81.4457 10.6633L86.2168 19.1837H82.0722L78.9277 13.2398L77.5062 14.8087V19.1837H74.1327V0.446429Z" fill="#071E3D"/>
<path d="M90.5784 14.7449C90.6505 15.3911 90.8074 15.8503 91.048 16.1224C91.474 16.6071 92.2609 16.8495 93.4098 16.8495C94.0845 16.8495 94.6185 16.7432 95.0121 16.5306C95.4135 16.318 95.6144 15.9991 95.6144 15.574C95.6144 15.1658 95.454 14.8554 95.1324 14.6429C94.8113 14.4303 93.6184 14.0646 91.5542 13.5459C90.0683 13.1548 89.02 12.6658 88.4097 12.0791C87.799 11.5009 87.4941 10.6675 87.4941 9.5791C87.4941 8.29506 87.9679 7.19388 88.9156 6.27551C89.8713 5.34865 91.213 4.88522 92.9399 4.88522C94.5784 4.88522 95.9116 5.23384 96.9399 5.9311C97.9758 6.61992 98.5703 7.81461 98.723 9.51531H95.289C95.2412 9.04763 95.1166 8.67771 94.9158 8.40563C94.5383 7.91241 93.8956 7.6658 92.988 7.6658C92.2409 7.6658 91.7069 7.7891 91.3857 8.03571C91.0723 8.28233 90.9158 8.57143 90.9158 8.90306C90.9158 9.31971 91.0842 9.62159 91.4216 9.80865C91.7589 10.0042 92.9518 10.3401 94.9998 10.8163C96.3654 11.1564 97.3894 11.6709 98.0722 12.3597C98.7469 13.057 99.0842 13.9286 99.0842 14.9745C99.0842 16.352 98.5985 17.4787 97.6265 18.3546C96.6627 19.222 95.1687 19.6556 93.1446 19.6556C91.0804 19.6556 89.5544 19.1964 88.5663 18.278C87.5862 17.3512 87.0962 16.1735 87.0962 14.7449H90.5784ZM100.289 7.99747V5.40816H102.12V1.53061H105.518V5.40816H107.651V7.99747H105.518V15.3444C105.518 15.9141 105.586 16.2713 105.723 16.4158C105.859 16.5519 106.277 16.6199 106.976 16.6199C107.08 16.6199 107.189 16.6199 107.301 16.6199C107.422 16.6114 107.538 16.6029 107.651 16.5944V19.3112L106.024 19.375C104.402 19.4345 103.293 19.1369 102.699 18.4821C102.313 18.0655 102.12 17.4235 102.12 16.5561V7.99747H100.289ZM116.988 4.94898C117.052 4.94898 117.104 4.95322 117.145 4.96171C117.193 4.96171 117.293 4.966 117.446 4.97449V8.69898C117.229 8.67347 117.036 8.65645 116.867 8.64796C116.699 8.63947 116.562 8.63518 116.458 8.63518C115.076 8.63518 114.149 9.11139 113.675 10.0638C113.409 10.5995 113.277 11.4243 113.277 12.5383V19.1837H109.819V5.28061H113.096V7.70408C113.627 6.77722 114.088 6.14371 114.482 5.80359C115.124 5.23384 115.96 4.94898 116.988 4.94898ZM124.651 7.90816C123.855 7.90816 123.237 8.17175 122.795 8.69898C122.361 9.2262 122.088 9.94049 121.976 10.8418H127.313C127.257 9.88094 126.98 9.15392 126.482 8.66073C125.992 8.15902 125.382 7.90816 124.651 7.90816ZM124.651 4.91069C125.743 4.91069 126.727 5.12755 127.602 5.56122C128.478 5.9949 129.201 6.67943 129.771 7.61478C130.285 8.43963 130.619 9.39624 130.771 10.4847C130.859 11.1224 130.896 12.0408 130.88 13.2398H121.891C121.94 14.6344 122.353 15.6122 123.132 16.1735C123.606 16.5221 124.177 16.6964 124.843 16.6964C125.55 16.6964 126.125 16.4838 126.566 16.0587C126.807 15.8291 127.02 15.5102 127.205 15.102H130.711C130.622 15.9269 130.217 16.7644 129.494 17.6148C128.37 18.9669 126.795 19.6429 124.771 19.6429C123.1 19.6429 121.627 19.0731 120.349 17.9337C119.072 16.7942 118.434 14.9405 118.434 12.3724C118.434 9.966 119.008 8.12073 120.156 6.83673C121.313 5.55273 122.811 4.91069 124.651 4.91069ZM138.386 7.90816C137.59 7.90816 136.972 8.17175 136.53 8.69898C136.096 9.2262 135.823 9.94049 135.711 10.8418H141.048C140.992 9.88094 140.715 9.15392 140.217 8.66073C139.727 8.15902 139.117 7.90816 138.386 7.90816ZM138.386 4.91069C139.478 4.91069 140.462 5.12755 141.337 5.56122C142.213 5.9949 142.936 6.67943 143.506 7.61478C144.02 8.43963 144.353 9.39624 144.506 10.4847C144.594 11.1224 144.631 12.0408 144.614 13.2398H135.627C135.674 14.6344 136.088 15.6122 136.867 16.1735C137.341 16.5221 137.912 16.6964 138.578 16.6964C139.285 16.6964 139.86 16.4838 140.301 16.0587C140.542 15.8291 140.755 15.5102 140.94 15.102H144.446C144.357 15.9269 143.952 16.7644 143.229 17.6148C142.105 18.9669 140.53 19.6429 138.506 19.6429C136.835 19.6429 135.361 19.0731 134.085 17.9337C132.807 16.7942 132.169 14.9405 132.169 12.3724C132.169 9.966 132.743 8.12073 133.892 6.83673C135.048 5.55273 136.546 4.91069 138.386 4.91069ZM145.59 7.99747V5.40816H147.422V1.53061H150.819V5.40816H152.952V7.99747H150.819V15.3444C150.819 15.9141 150.888 16.2713 151.024 16.4158C151.161 16.5519 151.578 16.6199 152.277 16.6199C152.382 16.6199 152.49 16.6199 152.603 16.6199C152.723 16.6114 152.839 16.6029 152.952 16.5944V19.3112L151.325 19.375C149.703 19.4345 148.594 19.1369 148 18.4821C147.614 18.0655 147.422 17.4235 147.422 16.5561V7.99747H145.59Z" fill="#FFA45C"/>
</svg>